<svg xmlns="http://www.w3.org/2000/svg" viewBox="0 0 1200 320" fill="none">
  <defs>
    <linearGradient id="bg" x1="0%" y1="0%" x2="100%" y2="100%">
      <stop offset="0%" style="stop-color:#0a0a1a"/>
      <stop offset="40%" style="stop-color:#12123a"/>
      <stop offset="100%" style="stop-color:#1a0a2e"/>
    </linearGradient>
    <linearGradient id="accent" x1="0%" y1="0%" x2="100%" y2="0%">
      <stop offset="0%" style="stop-color:#06b6d4"/>
      <stop offset="100%" style="stop-color:#8b5cf6"/>
    </linearGradient>
    <linearGradient id="accent2" x1="0%" y1="0%" x2="0%" y2="100%">
      <stop offset="0%" style="stop-color:#06b6d4"/>
      <stop offset="100%" style="stop-color:#8b5cf6"/>
    </linearGradient>
    <linearGradient id="shine" x1="0%" y1="0%" x2="100%" y2="100%">
      <stop offset="0%" style="stop-color:#ffffff;stop-opacity:0.15"/>
      <stop offset="100%" style="stop-color:#ffffff;stop-opacity:0"/>
    </linearGradient>
  </defs>

  <!-- Background -->
  <rect width="1200" height="320" fill="url(#bg)" rx="16"/>

  <!-- Subtle dot grid -->
  <g opacity="0.04" fill="#ffffff">
    <circle cx="60" cy="40" r="1"/><circle cx="120" cy="40" r="1"/><circle cx="180" cy="40" r="1"/><circle cx="240" cy="40" r="1"/><circle cx="300" cy="40" r="1"/><circle cx="360" cy="40" r="1"/><circle cx="420" cy="40" r="1"/><circle cx="480" cy="40" r="1"/><circle cx="540" cy="40" r="1"/><circle cx="600" cy="40" r="1"/><circle cx="660" cy="40" r="1"/><circle cx="720" cy="40" r="1"/><circle cx="780" cy="40" r="1"/><circle cx="840" cy="40" r="1"/><circle cx="900" cy="40" r="1"/><circle cx="960" cy="40" r="1"/><circle cx="1020" cy="40" r="1"/><circle cx="1080" cy="40" r="1"/><circle cx="1140" cy="40" r="1"/>
    <circle cx="60" cy="80" r="1"/><circle cx="120" cy="80" r="1"/><circle cx="180" cy="80" r="1"/><circle cx="240" cy="80" r="1"/><circle cx="300" cy="80" r="1"/><circle cx="360" cy="80" r="1"/><circle cx="420" cy="80" r="1"/><circle cx="480" cy="80" r="1"/><circle cx="540" cy="80" r="1"/><circle cx="600" cy="80" r="1"/><circle cx="660" cy="80" r="1"/><circle cx="720" cy="80" r="1"/><circle cx="780" cy="80" r="1"/><circle cx="840" cy="80" r="1"/><circle cx="900" cy="80" r="1"/><circle cx="960" cy="80" r="1"/><circle cx="1020" cy="80" r="1"/><circle cx="1080" cy="80" r="1"/><circle cx="1140" cy="80" r="1"/>
    <circle cx="60" cy="120" r="1"/><circle cx="120" cy="120" r="1"/><circle cx="180" cy="120" r="1"/><circle cx="240" cy="120" r="1"/><circle cx="300" cy="120" r="1"/><circle cx="360" cy="120" r="1"/><circle cx="420" cy="120" r="1"/><circle cx="480" cy="120" r="1"/><circle cx="540" cy="120" r="1"/><circle cx="600" cy="120" r="1"/><circle cx="660" cy="120" r="1"/><circle cx="720" cy="120" r="1"/><circle cx="780" cy="120" r="1"/><circle cx="840" cy="120" r="1"/><circle cx="900" cy="120" r="1"/><circle cx="960" cy="120" r="1"/><circle cx="1020" cy="120" r="1"/><circle cx="1080" cy="120" r="1"/><circle cx="1140" cy="120" r="1"/>
    <circle cx="60" cy="160" r="1"/><circle cx="120" cy="160" r="1"/><circle cx="180" cy="160" r="1"/><circle cx="240" cy="160" r="1"/><circle cx="300" cy="160" r="1"/><circle cx="360" cy="160" r="1"/><circle cx="420" cy="160" r="1"/><circle cx="480" cy="160" r="1"/><circle cx="540" cy="160" r="1"/><circle cx="600" cy="160" r="1"/><circle cx="660" cy="160" r="1"/><circle cx="720" cy="160" r="1"/><circle cx="780" cy="160" r="1"/><circle cx="840" cy="160" r="1"/><circle cx="900" cy="160" r="1"/><circle cx="960" cy="160" r="1"/><circle cx="1020" cy="160" r="1"/><circle cx="1080" cy="160" r="1"/><circle cx="1140" cy="160" r="1"/>
    <circle cx="60" cy="200" r="1"/><circle cx="120" cy="200" r="1"/><circle cx="180" cy="200" r="1"/><circle cx="240" cy="200" r="1"/><circle cx="300" cy="200" r="1"/><circle cx="360" cy="200" r="1"/><circle cx="420" cy="200" r="1"/><circle cx="480" cy="200" r="1"/><circle cx="540" cy="200" r="1"/><circle cx="600" cy="200" r="1"/><circle cx="660" cy="200" r="1"/><circle cx="720" cy="200" r="1"/><circle cx="780" cy="200" r="1"/><circle cx="840" cy="200" r="1"/><circle cx="900" cy="200" r="1"/><circle cx="960" cy="200" r="1"/><circle cx="1020" cy="200" r="1"/><circle cx="1080" cy="200" r="1"/><circle cx="1140" cy="200" r="1"/>
    <circle cx="60" cy="240" r="1"/><circle cx="120" cy="240" r="1"/><circle cx="180" cy="240" r="1"/><circle cx="240" cy="240" r="1"/><circle cx="300" cy="240" r="1"/><circle cx="360" cy="240" r="1"/><circle cx="420" cy="240" r="1"/><circle cx="480" cy="240" r="1"/><circle cx="540" cy="240" r="1"/><circle cx="600" cy="240" r="1"/><circle cx="660" cy="240" r="1"/><circle cx="720" cy="240" r="1"/><circle cx="780" cy="240" r="1"/><circle cx="840" cy="240" r="1"/><circle cx="900" cy="240" r="1"/><circle cx="960" cy="240" r="1"/><circle cx="1020" cy="240" r="1"/><circle cx="1080" cy="240" r="1"/><circle cx="1140" cy="240" r="1"/>
    <circle cx="60" cy="280" r="1"/><circle cx="120" cy="280" r="1"/><circle cx="180" cy="280" r="1"/><circle cx="240" cy="280" r="1"/><circle cx="300" cy="280" r="1"/><circle cx="360" cy="280" r="1"/><circle cx="420" cy="280" r="1"/><circle cx="480" cy="280" r="1"/><circle cx="540" cy="280" r="1"/><circle cx="600" cy="280" r="1"/><circle cx="660" cy="280" r="1"/><circle cx="720" cy="280" r="1"/><circle cx="780" cy="280" r="1"/><circle cx="840" cy="280" r="1"/><circle cx="900" cy="280" r="1"/><circle cx="960" cy="280" r="1"/><circle cx="1020" cy="280" r="1"/><circle cx="1080" cy="280" r="1"/><circle cx="1140" cy="280" r="1"/>
  </g>

  <!-- Large glow orbs -->
  <circle cx="200" cy="160" r="180" fill="#8b5cf6" opacity="0.04"/>
  <circle cx="1000" cy="160" r="200" fill="#06b6d4" opacity="0.04"/>

  <!-- GPU chip icon -->
  <g transform="translate(115, 85)">
    <!-- Outer glow -->
    <rect x="5" y="5" width="110" height="110" rx="12" fill="#8b5cf6" opacity="0.08"/>
    <!-- Chip body -->
    <rect x="10" y="10" width="100" height="100" rx="10" fill="#141430" stroke="url(#accent2)" stroke-width="2"/>
    <!-- Inner die -->
    <rect x="28" y="28" width="64" height="64" rx="6" fill="#0a0a1a" stroke="url(#accent)" stroke-width="1.5"/>
    <!-- Die shine -->
    <rect x="28" y="28" width="64" height="32" rx="6" fill="url(#shine)"/>
    <!-- Rocket icon inside die -->
    <path d="M60 46 L60 72 M52 58 L60 48 L68 58 M50 70 L60 76 L70 70" stroke="url(#accent)" stroke-width="2.5" stroke-linecap="round" stroke-linejoin="round" fill="none"/>
    <!-- Pins top -->
    <rect x="25" y="1" width="5" height="11" rx="1.5" fill="#06b6d4" opacity="0.7"/>
    <rect x="38" y="1" width="5" height="11" rx="1.5" fill="#06b6d4" opacity="0.7"/>
    <rect x="51" y="1" width="5" height="11" rx="1.5" fill="#06b6d4" opacity="0.7"/>
    <rect x="64" y="1" width="5" height="11" rx="1.5" fill="#06b6d4" opacity="0.7"/>
    <rect x="77" y="1" width="5" height="11" rx="1.5" fill="#06b6d4" opacity="0.7"/>
    <rect x="90" y="1" width="5" height="11" rx="1.5" fill="#06b6d4" opacity="0.7"/>
    <!-- Pins bottom -->
    <rect x="25" y="108" width="5" height="11" rx="1.5" fill="#06b6d4" opacity="0.7"/>
    <rect x="38" y="108" width="5" height="11" rx="1.5" fill="#06b6d4" opacity="0.7"/>
    <rect x="51" y="108" width="5" height="11" rx="1.5" fill="#06b6d4" opacity="0.7"/>
    <rect x="64" y="108" width="5" height="11" rx="1.5" fill="#06b6d4" opacity="0.7"/>
    <rect x="77" y="108" width="5" height="11" rx="1.5" fill="#06b6d4" opacity="0.7"/>
    <rect x="90" y="108" width="5" height="11" rx="1.5" fill="#06b6d4" opacity="0.7"/>
    <!-- Pins left -->
    <rect x="1" y="25" width="11" height="5" rx="1.5" fill="#8b5cf6" opacity="0.7"/>
    <rect x="1" y="38" width="11" height="5" rx="1.5" fill="#8b5cf6" opacity="0.7"/>
    <rect x="1" y="51" width="11" height="5" rx="1.5" fill="#8b5cf6" opacity="0.7"/>
    <rect x="1" y="64" width="11" height="5" rx="1.5" fill="#8b5cf6" opacity="0.7"/>
    <rect x="1" y="77" width="11" height="5" rx="1.5" fill="#8b5cf6" opacity="0.7"/>
    <rect x="1" y="90" width="11" height="5" rx="1.5" fill="#8b5cf6" opacity="0.7"/>
    <!-- Pins right -->
    <rect x="108" y="25" width="11" height="5" rx="1.5" fill="#8b5cf6" opacity="0.7"/>
    <rect x="108" y="38" width="11" height="5" rx="1.5" fill="#8b5cf6" opacity="0.7"/>
    <rect x="108" y="51" width="11" height="5" rx="1.5" fill="#8b5cf6" opacity="0.7"/>
    <rect x="108" y="64" width="11" height="5" rx="1.5" fill="#8b5cf6" opacity="0.7"/>
    <rect x="108" y="77" width="11" height="5" rx="1.5" fill="#8b5cf6" opacity="0.7"/>
    <rect x="108" y="90" width="11" height="5" rx="1.5" fill="#8b5cf6" opacity="0.7"/>
  </g>

  <!-- Main title -->
  <text x="360" y="135" font-family="system-ui, -apple-system, sans-serif" font-size="80" font-weight="800" fill="#ffffff">Pod</text>
  <text x="530" y="135" font-family="system-ui, -apple-system, sans-serif" font-size="80" font-weight="800" fill="url(#accent)">Pilot</text>

  <!-- Subtitle -->
  <text x="365" y="172" font-family="monospace" font-size="16" fill="#6b7280" letter-spacing="4">AUTOPILOT FOR RUNPOD GPU INFRASTRUCTURE</text>

  <!-- Accent line under subtitle -->
  <rect x="365" y="186" width="420" height="2" rx="1" fill="url(#accent)" opacity="0.5"/>

  <!-- Feature pills row -->
  <g transform="translate(365, 208)">
    <!-- Pill 1 -->
    <rect x="0" y="0" width="140" height="30" rx="15" fill="#06b6d4" opacity="0.1" stroke="#06b6d4" stroke-width="0.6" stroke-opacity="0.25"/>
    <text x="70" y="19" font-family="monospace" font-size="11" fill="#06b6d4" text-anchor="middle" font-weight="600">Smart GPU Pick</text>
    <!-- Pill 2 -->
    <rect x="155" y="0" width="145" height="30" rx="15" fill="#8b5cf6" opacity="0.1" stroke="#8b5cf6" stroke-width="0.6" stroke-opacity="0.25"/>
    <text x="227" y="19" font-family="monospace" font-size="11" fill="#a78bfa" text-anchor="middle" font-weight="600">Pod Lifecycle</text>
    <!-- Pill 3 -->
    <rect x="315" y="0" width="160" height="30" rx="15" fill="#06b6d4" opacity="0.1" stroke="#06b6d4" stroke-width="0.6" stroke-opacity="0.25"/>
    <text x="395" y="19" font-family="monospace" font-size="11" fill="#06b6d4" text-anchor="middle" font-weight="600">Volume Provision</text>
    <!-- Pill 4 -->
    <rect x="490" y="0" width="135" height="30" rx="15" fill="#8b5cf6" opacity="0.1" stroke="#8b5cf6" stroke-width="0.6" stroke-opacity="0.25"/>
    <text x="557" y="19" font-family="monospace" font-size="11" fill="#a78bfa" text-anchor="middle" font-weight="600">Cost Tracking</text>
  </g>

  <!-- Code snippet at bottom -->
  <g transform="translate(365, 258)">
    <rect x="0" y="0" width="480" height="36" rx="8" fill="#0f0f23" stroke="#1e1e3f" stroke-width="1"/>
    <circle cx="14" cy="18" r="4" fill="#ff5f57" opacity="0.8"/>
    <circle cx="28" cy="18" r="4" fill="#febc2e" opacity="0.8"/>
    <circle cx="42" cy="18" r="4" fill="#28c840" opacity="0.8"/>
    <text x="62" y="22" font-family="monospace" font-size="12" fill="#22d3ee">from</text>
    <text x="98" y="22" font-family="monospace" font-size="12" fill="#e2e8f0"> podpilot </text>
    <text x="186" y="22" font-family="monospace" font-size="12" fill="#22d3ee">import</text>
    <text x="240" y="22" font-family="monospace" font-size="12" fill="#c4b5fd"> RunPodManager</text>
  </g>

  <!-- Decorative circuit traces on right side -->
  <g opacity="0.06" stroke="#06b6d4" stroke-width="1" fill="none">
    <path d="M950 60 L1020 60 L1020 100 L1080 100"/>
    <path d="M950 120 L1000 120 L1000 160 L1060 160"/>
    <path d="M950 180 L1020 180 L1020 220 L1100 220"/>
    <path d="M950 240 L980 240 L980 270 L1040 270"/>
    <circle cx="1080" cy="100" r="3" fill="#06b6d4"/>
    <circle cx="1060" cy="160" r="3" fill="#06b6d4"/>
    <circle cx="1100" cy="220" r="3" fill="#06b6d4"/>
    <circle cx="1040" cy="270" r="3" fill="#06b6d4"/>
  </g>
</svg>
